PathFileType	4	(X/Y/Z)	SUBJ36_3_walk_RCNL2025.trc
DataRate	CameraRate	NumFrames	NumMarkers	Units	OrigDataRate	OrigDataStartFrame	OrigNumFrames
100	100	11	25	mm	100	130	344
Frame#	Time	R_Shoulder			L_Shoulder			C7			J_Notch			R_Elbow			L_Elbow			R_Wrist			L_Wrist			R_Asis			L_Asis			Sacral			Thoracic			Sternum			R_Thigh_Lateral			R_Knee_Lateral			R_Shank_Lateral			R_Ankle_Lateral			R_Heel			R_Toe			L_Thigh_Lateral			L_Knee_Lateral			L_Shank_Lateral			L_Ankle_Lateral			L_Heel			L_Toe		
		X1	Y1	Z1	X2	Y2	Z2	X3	Y3	Z3	X4	Y4	Z4	X5	Y5	Z5	X6	Y6	Z6	X7	Y7	Z7	X8	Y8	Z8	X9	Y9	Z9	X10	Y10	Z10	X11	Y11	Z11	X12	Y12	Z12	X13	Y13	Z13	X14	Y14	Z14	X15	Y15	Z15	X16	Y16	Z16	X17	Y17	Z17	X18	Y18	Z18	X19	Y19	Z19	X20	Y20	Z20	X21	Y21	Z21	X22	Y22	Z22	X23	Y23	Z23	X24	Y24	Z24	X25	Y25	Z25
130	1.29000000	-992.554932	1346.790283	272.462067	-1028.118164	1313.361694	-70.448769	-1069.561890	1405.654297	114.612511	-939.050598	1290.985107	107.111610	-1035.460571	1032.045654	362.440918	-1122.629272	1009.307373	-110.200623	-884.545593	841.630798	354.199417	-1052.085205	784.717773	-121.502655	-960.901489	904.858032	236.655289	-957.647339	903.813110	10.549424	-1180.186157	901.332214	115.803215	-1156.850830	1153.922363	133.298065	-912.521912	1109.832520	116.725250	-1113.129639	505.770996	267.452118	-1120.721558	446.803223	215.949631	-1168.618652	237.210144	239.634140	-1186.441895	73.553375	160.294876	-1236.035889	54.579014	113.953308	-1068.581299	43.483772	134.824295	-878.453552	539.557129	-73.691872	-854.986450	468.748230	-4.499078	-929.177856	280.328766	-40.106388	-979.946167	118.513504	30.031246	-1019.793884	93.923088	86.866653	-863.557373	62.675053	37.036488
131	1.30000000	-981.944214	1345.407349	272.886475	-1017.575928	1312.059570	-70.024849	-1058.765381	1404.514282	115.101456	-928.310486	1289.738892	107.544067	-1023.606873	1030.623047	362.934784	-1112.829956	1008.280212	-109.566185	-871.383362	841.273254	353.897888	-1043.403595	783.389465	-121.729851	-950.470459	903.895935	236.913452	-947.062988	902.797546	10.592420	-1169.524780	900.052185	115.757767	-1146.239136	1152.858643	133.521286	-901.888306	1108.547363	117.231300	-1108.527954	506.495361	267.745789	-1116.755371	447.561401	216.158218	-1166.991699	238.447998	239.682388	-1185.743652	74.822701	160.323166	-1235.659790	56.478588	113.677750	-1068.334595	43.432232	134.699799	-867.181763	539.092712	-73.247330	-843.109192	467.698944	-3.929056	-905.327698	273.164825	-38.248554	-945.800415	109.563293	33.155846	-983.957947	83.273476	90.444572	-826.094238	60.987076	40.521103
132	1.31000000	-971.364441	1343.977661	273.252533	-1006.857849	1310.728882	-69.671928	-1047.955200	1403.311279	115.495598	-917.534973	1288.447266	107.957466	-1011.751892	1029.145020	363.300140	-1102.837891	1007.202271	-108.986267	-858.530060	840.625366	353.627670	-1034.554291	782.046295	-121.919327	-940.004822	902.989563	237.293365	-936.329224	901.632385	10.696360	-1158.739380	898.709106	115.657837	-1135.570923	1151.710938	133.621201	-891.199585	1107.223389	117.702660	-1103.490967	507.268677	268.109528	-1112.374512	448.355621	216.426498	-1165.076538	239.794037	239.829681	-1184.915405	76.203094	160.495728	-1235.217529	58.535255	113.546104	-1068.074951	43.381985	134.624603	-857.238892	537.811462	-72.795372	-832.299133	466.070160	-3.354390	-882.225952	266.425690	-36.201527	-911.658875	101.487984	36.468193	-947.978577	73.655235	94.214622	-788.996155	60.305878	44.084774
133	1.32000000	-960.812988	1342.523071	273.554291	-995.969177	1309.383911	-69.393127	-1037.134399	1402.054565	115.787910	-906.722839	1287.128540	108.345573	-999.898132	1027.633545	363.535828	-1092.649048	1006.084839	-108.470192	-845.984039	839.695038	353.392761	-1025.528992	780.700714	-122.068180	-929.471436	902.149170	237.782654	-925.421875	900.346924	10.868647	-1147.811035	897.332275	115.500633	-1124.833008	1150.480347	133.605484	-880.441650	1105.880859	118.135414	-1097.996216	508.071472	268.551300	-1107.567383	449.177399	216.759430	-1162.856812	241.238327	240.082626	-1183.988159	77.680504	160.778595	-1234.692017	60.740250	113.568718	-1067.783203	43.351524	134.604156	-848.642151	535.630737	-72.247505	-822.481079	463.921692	-2.706071	-859.991760	260.219391	-33.980232	-877.835754	94.467636	39.902054	-912.160156	65.240204	98.092476	-752.588196	60.709068	47.531326
134	1.33000000	-950.285400	1341.062134	273.787109	-984.918762	1308.030396	-69.190865	-1026.303833	1400.750244	115.970741	-895.871033	1285.799805	108.699593	-988.050232	1026.106934	363.646179	-1082.257080	1004.931213	-108.026680	-833.742432	838.491943	353.199921	-1016.286957	779.364319	-122.188969	-918.835388	901.372681	238.357742	-914.324585	898.968018	11.109906	-1136.725586	895.945129	115.290230	-1114.011963	1149.167480	133.478210	-869.599731	1104.535645	118.529823	-1092.028198	508.877808	269.066681	-1102.324707	450.015564	217.153427	-1160.321289	242.767853	240.435547	-1182.992188	79.232498	161.128281	-1234.073364	63.090874	113.739189	-1067.438965	43.363018	134.642334	-841.341675	532.514587	-71.502159	-813.526794	461.348083	-1.915348	-838.695190	254.623123	-31.613567	-844.690796	88.636177	43.361633	-876.866943	58.144497	101.979942	-717.237122	62.192860	50.686756
135	1.34000000	-939.775330	1339.610596	273.947021	-973.719299	1306.666504	-69.067879	-1015.460938	1399.403076	116.037094	-884.972839	1284.475098	109.009071	-976.216431	1024.579590	363.638947	-1071.656128	1003.738525	-107.664795	-821.804657	837.029633	353.057465	-1006.771484	778.045105	-122.303459	-908.062378	900.644958	238.987442	-903.029785	897.515259	11.412621	-1125.473145	894.562561	115.036758	-1103.094971	1147.774170	133.241806	-858.659119	1103.200562	118.890419	-1085.583374	509.660492	269.640411	-1096.642456	450.854950	217.597412	-1157.465210	244.368301	240.873215	-1181.949707	80.843010	161.514709	-1233.357910	65.586777	114.041786	-1067.026367	43.431267	134.739197	-835.199097	528.495667	-70.456764	-805.251770	458.475159	-0.921793	-818.363892	249.690002	-29.141800	-812.607849	84.055885	46.732628	-842.513245	52.411259	105.769096	-683.322998	64.656746	53.428848
136	1.35000000	-929.274536	1338.180542	274.030060	-962.385742	1305.284790	-69.026230	-1004.599060	1398.017212	115.983124	-874.017090	1283.164917	109.263161	-964.407654	1023.062744	363.523010	-1060.842773	1002.500854	-107.392517	-810.174133	835.328308	352.973648	-996.944855	776.734314	-122.427250	-897.119629	899.940369	239.637115	-891.538330	895.999207	11.761876	-1114.048096	893.191223	114.755630	-1092.068848	1146.305298	132.900787	-847.605164	1101.885986	119.223648	-1078.669800	510.393616	270.250397	-1090.522827	451.675751	218.076233	-1154.289795	246.025223	241.376953	-1180.870483	82.515778	161.927551	-1232.543457	68.227295	114.459908	-1066.539062	43.557995	134.890457	-829.979309	523.690979	-69.025581	-797.417480	455.451263	0.318228	-798.995850	245.453049	-26.614302	-781.970520	80.697769	49.906925	-809.544312	48.000404	109.350388	-651.208252	67.900764	55.703796
137	1.36000000	-918.772278	1336.780884	274.033051	-950.933899	1303.876099	-69.066292	-993.709106	1396.598145	115.809563	-862.989929	1281.877563	109.450821	-952.637756	1021.565063	363.308228	-1049.816162	1001.212463	-107.214348	-798.855072	833.411224	352.953796	-986.829346	775.392914	-122.549961	-885.977478	899.225037	240.271591	-879.856445	894.421021	12.137461	-1102.447876	891.833496	114.466606	-1080.921631	1144.768921	132.464340	-836.423950	1100.599854	119.534912	-1071.305908	511.053925	270.873383	-1083.970581	452.453827	218.573914	-1150.801514	247.724915	241.930359	-1179.749146	84.269661	162.367645	-1231.625244	71.011459	114.978363	-1065.978882	43.734276	135.090118	-825.354126	518.306702	-67.160576	-789.742310	452.435028	1.823495	-780.573181	241.921494	-24.086649	-753.136292	78.436348	52.805954	-778.409180	44.786465	112.626701	-621.215271	71.638000	57.534634
138	1.37000000	-908.254028	1335.419067	273.955811	-939.379578	1302.432983	-69.187332	-982.781128	1395.153320	115.521454	-851.878601	1280.617798	109.561226	-940.922241	1020.094421	363.005859	-1038.577148	999.868286	-107.130020	-787.849121	831.300018	353.000229	-976.527466	773.948822	-122.623909	-874.609802	898.462769	240.858856	-867.992065	892.776550	12.515965	-1090.669312	890.491028	114.192139	-1069.642456	1143.176636	131.946274	-825.102417	1099.348389	119.827141	-1063.515747	511.622253	271.489594	-1076.990112	453.162811	219.074631	-1147.009644	249.454498	242.520889	-1178.566528	86.124207	162.840973	-1230.595337	73.939369	115.581833	-1065.354004	43.944138	135.334244	-820.916870	512.628662	-64.870735	-781.923218	449.578522	3.582206	-763.077820	239.072647	-21.615084	-726.413269	77.062279	55.393944	-749.527649	42.566792	115.532089	-593.610962	75.519272	59.014923
139	1.38000000	-897.700012	1334.101318	273.802704	-927.737671	1300.952393	-69.387772	-971.804626	1393.692261	115.126961	-840.673767	1279.389404	109.585289	-929.276489	1018.658325	362.628601	-1027.130859	998.463623	-107.135033	-777.154724	829.014771	353.116913	-966.166412	772.328644	-122.590576	-862.995056	897.621155	241.375275	-855.951843	891.062805	12.873892	-1078.706787	889.167419	113.955956	-1058.221313	1141.540527	131.363235	-813.628174	1098.138916	120.100227	-1055.325073	512.084229	272.084015	-1069.585205	453.778290	219.563400	-1142.925171	251.201767	243.139023	-1177.293823	88.092987	163.355927	-1229.442749	77.013603	116.254608	-1064.677979	44.166370	135.623718	-816.205261	506.995422	-62.234879	-773.666870	447.003845	5.549644	-746.501282	236.844757	-19.247808	-702.042847	76.311401	57.680462	-723.258850	41.086044	118.048279	-568.595947	79.163177	60.287186
140	1.39000000	-887.084473	1332.834351	273.582245	-916.022583	1299.437012	-69.664711	-960.767761	1392.226074	114.636131	-829.369263	1278.198364	109.517487	-917.713196	1017.264221	362.191833	-1015.489685	996.995361	-107.221191	-766.769928	826.577606	353.313278	-955.775146	770.516998	-122.439655	-851.117554	896.674438	241.809799	-843.739136	889.285767	13.192086	-1066.553955	887.869141	113.781792	-1046.647217	1139.872803	130.733734	-801.989258	1096.981567	120.349899	-1046.758057	512.432495	272.645630	-1061.758301	454.282196	220.028259	-1138.559692	252.956619	243.775711	-1175.897461	90.187233	163.917282	-1228.152832	80.239304	116.980743	-1063.968628	44.376667	135.966492	-810.732666	501.755798	-59.403568	-764.724670	444.779266	7.649630	-730.839417	235.133102	-17.016224	-680.192810	75.901894	59.715248	-699.878723	40.078491	120.211472	-546.300781	82.188759	61.513588
